<?xml version="1.0" encoding="UTF-8" standalone="no"?>
<!DOCTYPE svg PUBLIC "-//W3C//DTD SVG 1.1//EN"
 "http://www.w3.org/Graphics/SVG/1.1/DTD/svg11.dtd">
<!-- Generated by graphviz version 5.0.0 (20220707.1540)
 -->
<!-- Title: dependencies Pages: 1 -->
<svg width="218pt" height="174pt"
 viewBox="0.00 0.00 218.00 173.80" xmlns="http://www.w3.org/2000/svg" xmlns:xlink="http://www.w3.org/1999/xlink">
<g id="graph0" class="graph" transform="scale(1 1) rotate(0) translate(4 169.8)">
<title>dependencies</title>
<polygon fill="white" stroke="transparent" points="-4,4 -4,-169.8 214,-169.8 214,4 -4,4"/>
<text text-anchor="middle" x="105" y="-8.2" font-family="sans-serif" font-size="14.00">dependencies</text>
<g id="clust1" class="cluster">
<title>cluster_ModalContatoModule</title>
<polygon fill="none" stroke="black" stroke-dasharray="1,5" points="8,-32.8 8,-157.8 202,-157.8 202,-32.8 8,-32.8"/>
</g>
<g id="clust2" class="cluster">
<title>cluster_ModalContatoModule_declarations</title>
<polygon fill="none" stroke="black" points="16,-40.8 16,-92.8 194,-92.8 194,-40.8 16,-40.8"/>
</g>
<!-- ModalContatoComponent -->
<g id="node1" class="node">
<title>ModalContatoComponent</title>
<polygon fill="#ffffb3" stroke="black" points="186.21,-84.8 23.79,-84.8 23.79,-48.8 186.21,-48.8 186.21,-84.8"/>
<text text-anchor="middle" x="105" y="-62.6" font-family="Times,serif" font-size="14.00">ModalContatoComponent</text>
</g>
<!-- ModalContatoModule -->
<g id="node2" class="node">
<title>ModalContatoModule</title>
<polygon fill="#8dd3c7" stroke="black" points="175.44,-149.8 172.44,-153.8 151.44,-153.8 148.44,-149.8 34.56,-149.8 34.56,-113.8 175.44,-113.8 175.44,-149.8"/>
<text text-anchor="middle" x="105" y="-127.6" font-family="Times,serif" font-size="14.00">ModalContatoModule</text>
</g>
<!-- ModalContatoComponent&#45;&gt;ModalContatoModule -->
<g id="edge1" class="edge">
<title>ModalContatoComponent&#45;&gt;ModalContatoModule</title>
<path fill="none" stroke="black" d="M105,-84.91C105,-84.91 105,-103.79 105,-103.79"/>
<polygon fill="black" stroke="black" points="101.5,-103.79 105,-113.79 108.5,-103.79 101.5,-103.79"/>
</g>
</g>
</svg>
