<?xml version="1.0" encoding="UTF-8" standalone="no"?>
<!DOCTYPE svg PUBLIC "-//W3C//DTD SVG 1.1//EN"
 "http://www.w3.org/Graphics/SVG/1.1/DTD/svg11.dtd">
<!-- Generated by graphviz version 5.0.0 (20220707.1540)
 -->
<!-- Title: dependencies Pages: 1 -->
<svg width="570pt" height="247pt"
 viewBox="0.00 0.00 570.00 246.80" xmlns="http://www.w3.org/2000/svg" xmlns:xlink="http://www.w3.org/1999/xlink">
<g id="graph0" class="graph" transform="scale(1 1) rotate(0) translate(4 242.8)">
<title>dependencies</title>
<polygon fill="white" stroke="transparent" points="-4,4 -4,-242.8 566,-242.8 566,4 -4,4"/>
<text text-anchor="middle" x="281" y="-8.2" font-family="sans-serif" font-size="14.00">dependencies</text>
<g id="clust1" class="cluster">
<title>cluster_AppModule</title>
<polygon fill="none" stroke="black" stroke-dasharray="1,5" points="8,-32.8 8,-230.8 554,-230.8 554,-32.8 8,-32.8"/>
</g>
<g id="clust2" class="cluster">
<title>cluster_AppModule_declarations</title>
<polygon fill="none" stroke="black" points="424,-40.8 424,-92.8 546,-92.8 546,-40.8 424,-40.8"/>
</g>
<g id="clust7" class="cluster">
<title>cluster_AppModule_providers</title>
<polygon fill="none" stroke="black" points="286,-40.8 286,-92.8 416,-92.8 416,-40.8 286,-40.8"/>
</g>
<g id="clust6" class="cluster">
<title>cluster_AppModule_bootstrap</title>
<polygon fill="none" stroke="black" points="216,-170.8 216,-222.8 340,-222.8 340,-170.8 216,-170.8"/>
</g>
<g id="clust4" class="cluster">
<title>cluster_AppModule_imports</title>
<polygon fill="none" stroke="black" points="16,-40.8 16,-92.8 278,-92.8 278,-40.8 16,-40.8"/>
</g>
<!-- AppComponent -->
<g id="node1" class="node">
<title>AppComponent</title>
<polygon fill="#ffffb3" stroke="black" points="537.94,-84.8 432.06,-84.8 432.06,-48.8 537.94,-48.8 537.94,-84.8"/>
<text text-anchor="middle" x="485" y="-62.6" font-family="Times,serif" font-size="14.00">AppComponent</text>
</g>
<!-- AppModule -->
<g id="node2" class="node">
<title>AppModule</title>
<polygon fill="#8dd3c7" stroke="black" points="319.66,-149.8 316.66,-153.8 295.66,-153.8 292.66,-149.8 236.34,-149.8 236.34,-113.8 319.66,-113.8 319.66,-149.8"/>
<text text-anchor="middle" x="278" y="-127.6" font-family="Times,serif" font-size="14.00">AppModule</text>
</g>
<!-- AppComponent&#45;&gt;AppModule -->
<g id="edge1" class="edge">
<title>AppComponent&#45;&gt;AppModule</title>
<path fill="none" stroke="black" d="M485,-84.91C485,-104.14 485,-131.8 485,-131.8 485,-131.8 329.89,-131.8 329.89,-131.8"/>
<polygon fill="black" stroke="black" points="329.89,-128.3 319.89,-131.8 329.89,-135.3 329.89,-128.3"/>
</g>
<!-- AppComponent  -->
<g id="node5" class="node">
<title>AppComponent </title>
<polygon fill="#80b1d3" stroke="black" points="332.44,-214.8 223.56,-214.8 223.56,-178.8 332.44,-178.8 332.44,-214.8"/>
<text text-anchor="middle" x="278" y="-192.6" font-family="Times,serif" font-size="14.00">AppComponent </text>
</g>
<!-- AppModule&#45;&gt;AppComponent  -->
<g id="edge4" class="edge">
<title>AppModule&#45;&gt;AppComponent </title>
<path fill="none" stroke="black" stroke-dasharray="1,5" d="M278,-149.91C278,-149.91 278,-168.79 278,-168.79"/>
<polygon fill="black" stroke="black" points="274.5,-168.79 278,-178.79 281.5,-168.79 274.5,-168.79"/>
</g>
<!-- AppRoutingModule -->
<g id="node3" class="node">
<title>AppRoutingModule</title>
<polygon fill="#8dd3c7" stroke="black" points="270.28,-84.8 267.28,-88.8 246.28,-88.8 243.28,-84.8 141.72,-84.8 141.72,-48.8 270.28,-48.8 270.28,-84.8"/>
<text text-anchor="middle" x="206" y="-62.6" font-family="Times,serif" font-size="14.00">AppRoutingModule</text>
</g>
<!-- AppRoutingModule&#45;&gt;AppModule -->
<g id="edge2" class="edge">
<title>AppRoutingModule&#45;&gt;AppModule</title>
<path fill="none" stroke="black" d="M253.28,-84.91C253.28,-84.91 253.28,-103.79 253.28,-103.79"/>
<polygon fill="black" stroke="black" points="249.78,-103.79 253.28,-113.79 256.78,-103.79 249.78,-103.79"/>
</g>
<!-- ClienteModule -->
<g id="node4" class="node">
<title>ClienteModule</title>
<polygon fill="#8dd3c7" stroke="black" points="123.99,-84.8 120.99,-88.8 99.99,-88.8 96.99,-84.8 24.01,-84.8 24.01,-48.8 123.99,-48.8 123.99,-84.8"/>
<text text-anchor="middle" x="74" y="-62.6" font-family="Times,serif" font-size="14.00">ClienteModule</text>
</g>
<!-- ClienteModule&#45;&gt;AppModule -->
<g id="edge3" class="edge">
<title>ClienteModule&#45;&gt;AppModule</title>
<path fill="none" stroke="black" d="M74,-84.91C74,-104.14 74,-131.8 74,-131.8 74,-131.8 226.23,-131.8 226.23,-131.8"/>
<polygon fill="black" stroke="black" points="226.23,-135.3 236.23,-131.8 226.23,-128.3 226.23,-135.3"/>
</g>
<!-- AppService -->
<g id="node6" class="node">
<title>AppService</title>
<ellipse fill="#fdb462" stroke="black" cx="351" cy="-66.8" rx="56.75" ry="18"/>
<text text-anchor="middle" x="351" y="-62.6" font-family="Times,serif" font-size="14.00">AppService</text>
</g>
<!-- AppService&#45;&gt;AppModule -->
<g id="edge5" class="edge">
<title>AppService&#45;&gt;AppModule</title>
<path fill="none" stroke="black" d="M307.1,-78.42C307.1,-78.42 307.1,-103.65 307.1,-103.65"/>
<polygon fill="black" stroke="black" points="303.6,-103.65 307.1,-113.65 310.6,-103.65 303.6,-103.65"/>
</g>
</g>
</svg>
