<?xml version="1.0" encoding="UTF-8" standalone="no"?>
<!DOCTYPE svg PUBLIC "-//W3C//DTD SVG 1.1//EN"
 "http://www.w3.org/Graphics/SVG/1.1/DTD/svg11.dtd">
<!-- Generated by graphviz version 5.0.0 (20220707.1540)
 -->
<!-- Title: dependencies Pages: 1 -->
<svg width="652pt" height="247pt"
 viewBox="0.00 0.00 652.00 246.80" xmlns="http://www.w3.org/2000/svg" xmlns:xlink="http://www.w3.org/1999/xlink">
<g id="graph0" class="graph" transform="scale(1 1) rotate(0) translate(4 242.8)">
<title>dependencies</title>
<polygon fill="white" stroke="transparent" points="-4,4 -4,-242.8 648,-242.8 648,4 -4,4"/>
<text text-anchor="middle" x="322" y="-8.2" font-family="sans-serif" font-size="14.00">dependencies</text>
<g id="clust1" class="cluster">
<title>cluster_ClienteModule</title>
<polygon fill="none" stroke="black" stroke-dasharray="1,5" points="8,-32.8 8,-230.8 636,-230.8 636,-32.8 8,-32.8"/>
</g>
<g id="clust7" class="cluster">
<title>cluster_ClienteModule_providers</title>
<polygon fill="none" stroke="black" points="476,-40.8 476,-92.8 628,-92.8 628,-40.8 476,-40.8"/>
</g>
<g id="clust2" class="cluster">
<title>cluster_ClienteModule_declarations</title>
<polygon fill="none" stroke="black" points="330,-40.8 330,-92.8 468,-92.8 468,-40.8 330,-40.8"/>
</g>
<g id="clust4" class="cluster">
<title>cluster_ClienteModule_imports</title>
<polygon fill="none" stroke="black" points="16,-40.8 16,-92.8 322,-92.8 322,-40.8 16,-40.8"/>
</g>
<g id="clust5" class="cluster">
<title>cluster_ClienteModule_exports</title>
<polygon fill="none" stroke="black" points="252,-170.8 252,-222.8 394,-222.8 394,-170.8 252,-170.8"/>
</g>
<!-- ClienteComponent -->
<g id="node1" class="node">
<title>ClienteComponent</title>
<polygon fill="#ffffb3" stroke="black" points="459.77,-84.8 338.23,-84.8 338.23,-48.8 459.77,-48.8 459.77,-84.8"/>
<text text-anchor="middle" x="399" y="-62.6" font-family="Times,serif" font-size="14.00">ClienteComponent</text>
</g>
<!-- ClienteModule -->
<g id="node2" class="node">
<title>ClienteModule</title>
<polygon fill="#8dd3c7" stroke="black" points="372.99,-149.8 369.99,-153.8 348.99,-153.8 345.99,-149.8 273.01,-149.8 273.01,-113.8 372.99,-113.8 372.99,-149.8"/>
<text text-anchor="middle" x="323" y="-127.6" font-family="Times,serif" font-size="14.00">ClienteModule</text>
</g>
<!-- ClienteComponent&#45;&gt;ClienteModule -->
<g id="edge1" class="edge">
<title>ClienteComponent&#45;&gt;ClienteModule</title>
<path fill="none" stroke="black" d="M355.56,-84.91C355.56,-84.91 355.56,-103.79 355.56,-103.79"/>
<polygon fill="black" stroke="black" points="352.06,-103.79 355.56,-113.79 359.06,-103.79 352.06,-103.79"/>
</g>
<!-- ClienteComponent  -->
<g id="node5" class="node">
<title>ClienteComponent </title>
<polygon fill="#fb8072" stroke="black" points="385.77,-214.8 260.23,-214.8 260.23,-178.8 385.77,-178.8 385.77,-214.8"/>
<text text-anchor="middle" x="323" y="-192.6" font-family="Times,serif" font-size="14.00">ClienteComponent </text>
</g>
<!-- ClienteModule&#45;&gt;ClienteComponent  -->
<g id="edge4" class="edge">
<title>ClienteModule&#45;&gt;ClienteComponent </title>
<path fill="none" stroke="black" stroke-dasharray="5,2" d="M323,-149.91C323,-149.91 323,-168.79 323,-168.79"/>
<polygon fill="black" stroke="black" points="319.5,-168.79 323,-178.79 326.5,-168.79 319.5,-168.79"/>
</g>
<!-- ModalAcoesModule -->
<g id="node3" class="node">
<title>ModalAcoesModule</title>
<polygon fill="#8dd3c7" stroke="black" points="313.59,-84.8 310.59,-88.8 289.59,-88.8 286.59,-84.8 182.41,-84.8 182.41,-48.8 313.59,-48.8 313.59,-84.8"/>
<text text-anchor="middle" x="248" y="-62.6" font-family="Times,serif" font-size="14.00">ModalAcoesModule</text>
</g>
<!-- ModalAcoesModule&#45;&gt;ClienteModule -->
<g id="edge2" class="edge">
<title>ModalAcoesModule&#45;&gt;ClienteModule</title>
<path fill="none" stroke="black" d="M293.28,-84.91C293.28,-84.91 293.28,-103.79 293.28,-103.79"/>
<polygon fill="black" stroke="black" points="289.78,-103.79 293.28,-113.79 296.78,-103.79 289.78,-103.79"/>
</g>
<!-- ModalContatoModule -->
<g id="node4" class="node">
<title>ModalContatoModule</title>
<polygon fill="#8dd3c7" stroke="black" points="164.44,-84.8 161.44,-88.8 140.44,-88.8 137.44,-84.8 23.56,-84.8 23.56,-48.8 164.44,-48.8 164.44,-84.8"/>
<text text-anchor="middle" x="94" y="-62.6" font-family="Times,serif" font-size="14.00">ModalContatoModule</text>
</g>
<!-- ModalContatoModule&#45;&gt;ClienteModule -->
<g id="edge3" class="edge">
<title>ModalContatoModule&#45;&gt;ClienteModule</title>
<path fill="none" stroke="black" d="M94,-84.91C94,-104.14 94,-131.8 94,-131.8 94,-131.8 262.74,-131.8 262.74,-131.8"/>
<polygon fill="black" stroke="black" points="262.75,-135.3 272.74,-131.8 262.74,-128.3 262.75,-135.3"/>
</g>
<!-- ClienteService -->
<g id="node6" class="node">
<title>ClienteService</title>
<ellipse fill="#fdb462" stroke="black" cx="552" cy="-66.8" rx="67.77" ry="18"/>
<text text-anchor="middle" x="552" y="-62.6" font-family="Times,serif" font-size="14.00">ClienteService</text>
</g>
<!-- ClienteService&#45;&gt;ClienteModule -->
<g id="edge5" class="edge">
<title>ClienteService&#45;&gt;ClienteModule</title>
<path fill="none" stroke="black" d="M552,-84.91C552,-104.14 552,-131.8 552,-131.8 552,-131.8 383.26,-131.8 383.26,-131.8"/>
<polygon fill="black" stroke="black" points="383.26,-128.3 373.26,-131.8 383.25,-135.3 383.26,-128.3"/>
</g>
</g>
</svg>
