<?xml version="1.0" encoding="UTF-8" standalone="no"?>
<!DOCTYPE svg PUBLIC "-//W3C//DTD SVG 1.1//EN"
 "http://www.w3.org/Graphics/SVG/1.1/DTD/svg11.dtd">
<!-- Generated by graphviz version 5.0.0 (20220707.1540)
 -->
<!-- Title: dependencies Pages: 1 -->
<svg width="802pt" height="399pt"
 viewBox="0.00 0.00 802.00 398.80" xmlns="http://www.w3.org/2000/svg" xmlns:xlink="http://www.w3.org/1999/xlink">
<g id="graph0" class="graph" transform="scale(1 1) rotate(0) translate(4 394.8)">
<title>dependencies</title>
<polygon fill="white" stroke="transparent" points="-4,4 -4,-394.8 798,-394.8 798,4 -4,4"/>
<text text-anchor="middle" x="397" y="-8.2" font-family="sans-serif" font-size="14.00">dependencies</text>
<g id="clust1" class="cluster">
<title>cluster_AppModule</title>
<polygon fill="none" stroke="black" stroke-dasharray="1,5" points="196,-184.8 196,-382.8 742,-382.8 742,-184.8 196,-184.8"/>
</g>
<g id="clust2" class="cluster">
<title>cluster_AppModule_declarations</title>
<polygon fill="none" stroke="black" points="612,-192.8 612,-244.8 734,-244.8 734,-192.8 612,-192.8"/>
</g>
<g id="clust4" class="cluster">
<title>cluster_AppModule_imports</title>
<polygon fill="none" stroke="black" points="342,-192.8 342,-244.8 604,-244.8 604,-192.8 342,-192.8"/>
</g>
<g id="clust6" class="cluster">
<title>cluster_AppModule_bootstrap</title>
<polygon fill="none" stroke="black" points="404,-322.8 404,-374.8 528,-374.8 528,-322.8 404,-322.8"/>
</g>
<g id="clust7" class="cluster">
<title>cluster_AppModule_providers</title>
<polygon fill="none" stroke="black" points="204,-192.8 204,-244.8 334,-244.8 334,-192.8 204,-192.8"/>
</g>
<g id="clust14" class="cluster">
<title>cluster_ClienteModule</title>
<polygon fill="none" stroke="black" stroke-dasharray="1,5" points="8,-108.8 8,-176.8 786,-176.8 786,-108.8 8,-108.8"/>
</g>
<g id="clust15" class="cluster">
<title>cluster_ClienteModule_declarations</title>
<polygon fill="none" stroke="black" points="640,-116.8 640,-168.8 778,-168.8 778,-116.8 640,-116.8"/>
</g>
<g id="clust17" class="cluster">
<title>cluster_ClienteModule_imports</title>
<polygon fill="none" stroke="black" points="326,-116.8 326,-168.8 632,-168.8 632,-116.8 326,-116.8"/>
</g>
<g id="clust18" class="cluster">
<title>cluster_ClienteModule_exports</title>
<polygon fill="none" stroke="black" points="176,-116.8 176,-168.8 318,-168.8 318,-116.8 176,-116.8"/>
</g>
<g id="clust20" class="cluster">
<title>cluster_ClienteModule_providers</title>
<polygon fill="none" stroke="black" points="16,-116.8 16,-168.8 168,-168.8 168,-116.8 16,-116.8"/>
</g>
<g id="clust21" class="cluster">
<title>cluster_ModalAcoesModule</title>
<polygon fill="none" stroke="black" stroke-dasharray="1,5" points="286,-32.8 286,-100.8 470,-100.8 470,-32.8 286,-32.8"/>
</g>
<g id="clust22" class="cluster">
<title>cluster_ModalAcoesModule_declarations</title>
<polygon fill="none" stroke="black" points="294,-40.8 294,-92.8 462,-92.8 462,-40.8 294,-40.8"/>
</g>
<g id="clust28" class="cluster">
<title>cluster_ModalContatoModule</title>
<polygon fill="none" stroke="black" stroke-dasharray="1,5" points="478,-32.8 478,-100.8 672,-100.8 672,-32.8 478,-32.8"/>
</g>
<g id="clust29" class="cluster">
<title>cluster_ModalContatoModule_declarations</title>
<polygon fill="none" stroke="black" points="486,-40.8 486,-92.8 664,-92.8 664,-40.8 486,-40.8"/>
</g>
<!-- AppComponent -->
<g id="node1" class="node">
<title>AppComponent</title>
<polygon fill="#ffffb3" stroke="black" points="725.94,-236.8 620.06,-236.8 620.06,-200.8 725.94,-200.8 725.94,-236.8"/>
<text text-anchor="middle" x="673" y="-214.6" font-family="Times,serif" font-size="14.00">AppComponent</text>
</g>
<!-- AppModule -->
<g id="node2" class="node">
<title>AppModule</title>
<polygon fill="#8dd3c7" stroke="black" points="507.66,-301.8 504.66,-305.8 483.66,-305.8 480.66,-301.8 424.34,-301.8 424.34,-265.8 507.66,-265.8 507.66,-301.8"/>
<text text-anchor="middle" x="466" y="-279.6" font-family="Times,serif" font-size="14.00">AppModule</text>
</g>
<!-- AppComponent&#45;&gt;AppModule -->
<g id="edge1" class="edge">
<title>AppComponent&#45;&gt;AppModule</title>
<path fill="none" stroke="black" d="M673,-236.91C673,-256.14 673,-283.8 673,-283.8 673,-283.8 517.89,-283.8 517.89,-283.8"/>
<polygon fill="black" stroke="black" points="517.89,-280.3 507.89,-283.8 517.89,-287.3 517.89,-280.3"/>
</g>
<!-- AppComponent  -->
<g id="node5" class="node">
<title>AppComponent </title>
<polygon fill="#80b1d3" stroke="black" points="520.44,-366.8 411.56,-366.8 411.56,-330.8 520.44,-330.8 520.44,-366.8"/>
<text text-anchor="middle" x="466" y="-344.6" font-family="Times,serif" font-size="14.00">AppComponent </text>
</g>
<!-- AppModule&#45;&gt;AppComponent  -->
<g id="edge4" class="edge">
<title>AppModule&#45;&gt;AppComponent </title>
<path fill="none" stroke="black" stroke-dasharray="1,5" d="M466,-301.91C466,-301.91 466,-320.79 466,-320.79"/>
<polygon fill="black" stroke="black" points="462.5,-320.79 466,-330.79 469.5,-320.79 462.5,-320.79"/>
</g>
<!-- AppRoutingModule -->
<g id="node3" class="node">
<title>AppRoutingModule</title>
<polygon fill="#8dd3c7" stroke="black" points="596.28,-236.8 593.28,-240.8 572.28,-240.8 569.28,-236.8 467.72,-236.8 467.72,-200.8 596.28,-200.8 596.28,-236.8"/>
<text text-anchor="middle" x="532" y="-214.6" font-family="Times,serif" font-size="14.00">AppRoutingModule</text>
</g>
<!-- AppRoutingModule&#45;&gt;AppModule -->
<g id="edge2" class="edge">
<title>AppRoutingModule&#45;&gt;AppModule</title>
<path fill="none" stroke="black" d="M487.72,-236.91C487.72,-236.91 487.72,-255.79 487.72,-255.79"/>
<polygon fill="black" stroke="black" points="484.22,-255.79 487.72,-265.79 491.22,-255.79 484.22,-255.79"/>
</g>
<!-- ClienteModule -->
<g id="node4" class="node">
<title>ClienteModule</title>
<polygon fill="#8dd3c7" stroke="black" points="449.99,-236.8 446.99,-240.8 425.99,-240.8 422.99,-236.8 350.01,-236.8 350.01,-200.8 449.99,-200.8 449.99,-236.8"/>
<text text-anchor="middle" x="400" y="-214.6" font-family="Times,serif" font-size="14.00">ClienteModule</text>
</g>
<!-- ClienteModule&#45;&gt;AppModule -->
<g id="edge3" class="edge">
<title>ClienteModule&#45;&gt;AppModule</title>
<path fill="none" stroke="black" d="M437.08,-236.91C437.08,-236.91 437.08,-255.79 437.08,-255.79"/>
<polygon fill="black" stroke="black" points="433.58,-255.79 437.08,-265.79 440.58,-255.79 433.58,-255.79"/>
</g>
<!-- ClienteComponent  -->
<g id="node10" class="node">
<title>ClienteComponent </title>
<polygon fill="#fb8072" stroke="black" points="309.77,-160.8 184.23,-160.8 184.23,-124.8 309.77,-124.8 309.77,-160.8"/>
<text text-anchor="middle" x="247" y="-138.6" font-family="Times,serif" font-size="14.00">ClienteComponent </text>
</g>
<!-- ClienteModule&#45;&gt;ClienteComponent  -->
<g id="edge9" class="edge">
<title>ClienteModule&#45;&gt;ClienteComponent </title>
<path fill="none" stroke="black" stroke-dasharray="5,2" d="M349.9,-218.8C338.69,-218.8 330.04,-218.8 330.04,-218.8 330.04,-218.8 330.04,-142.8 330.04,-142.8 330.04,-142.8 319.94,-142.8 319.94,-142.8"/>
<polygon fill="black" stroke="black" points="319.94,-139.3 309.94,-142.8 319.94,-146.3 319.94,-139.3"/>
</g>
<!-- AppService -->
<g id="node6" class="node">
<title>AppService</title>
<ellipse fill="#fdb462" stroke="black" cx="269" cy="-218.8" rx="56.75" ry="18"/>
<text text-anchor="middle" x="269" y="-214.6" font-family="Times,serif" font-size="14.00">AppService</text>
</g>
<!-- AppService&#45;&gt;AppModule -->
<g id="edge5" class="edge">
<title>AppService&#45;&gt;AppModule</title>
<path fill="none" stroke="black" d="M269,-236.91C269,-256.14 269,-283.8 269,-283.8 269,-283.8 414.22,-283.8 414.22,-283.8"/>
<polygon fill="black" stroke="black" points="414.22,-287.3 424.22,-283.8 414.22,-280.3 414.22,-287.3"/>
</g>
<!-- ClienteComponent -->
<g id="node7" class="node">
<title>ClienteComponent</title>
<polygon fill="#ffffb3" stroke="black" points="769.77,-160.8 648.23,-160.8 648.23,-124.8 769.77,-124.8 769.77,-160.8"/>
<text text-anchor="middle" x="709" y="-138.6" font-family="Times,serif" font-size="14.00">ClienteComponent</text>
</g>
<!-- ClienteComponent&#45;&gt;ClienteModule -->
<g id="edge6" class="edge">
<title>ClienteComponent&#45;&gt;ClienteModule</title>
<path fill="none" stroke="black" d="M686.92,-160.95C686.92,-174.54 686.92,-190.8 686.92,-190.8 686.92,-190.8 430,-190.8 430,-190.8 430,-190.8 430,-191.78 430,-191.78"/>
<polygon fill="black" stroke="black" points="426.5,-190.59 430,-200.59 433.5,-190.59 426.5,-190.59"/>
</g>
<!-- ModalAcoesModule -->
<g id="node8" class="node">
<title>ModalAcoesModule</title>
<polygon fill="#8dd3c7" stroke="black" points="465.59,-160.8 462.59,-164.8 441.59,-164.8 438.59,-160.8 334.41,-160.8 334.41,-124.8 465.59,-124.8 465.59,-160.8"/>
<text text-anchor="middle" x="400" y="-138.6" font-family="Times,serif" font-size="14.00">ModalAcoesModule</text>
</g>
<!-- ModalAcoesModule&#45;&gt;ClienteModule -->
<g id="edge7" class="edge">
<title>ModalAcoesModule&#45;&gt;ClienteModule</title>
<path fill="none" stroke="black" d="M390,-160.81C390,-160.81 390,-190.65 390,-190.65"/>
<polygon fill="black" stroke="black" points="386.5,-190.65 390,-200.65 393.5,-190.65 386.5,-190.65"/>
</g>
<!-- ModalContatoModule -->
<g id="node9" class="node">
<title>ModalContatoModule</title>
<polygon fill="#8dd3c7" stroke="black" points="624.44,-160.8 621.44,-164.8 600.44,-164.8 597.44,-160.8 483.56,-160.8 483.56,-124.8 624.44,-124.8 624.44,-160.8"/>
<text text-anchor="middle" x="554" y="-138.6" font-family="Times,serif" font-size="14.00">ModalContatoModule</text>
</g>
<!-- ModalContatoModule&#45;&gt;ClienteModule -->
<g id="edge8" class="edge">
<title>ModalContatoModule&#45;&gt;ClienteModule</title>
<path fill="none" stroke="black" d="M540.09,-160.91C540.09,-170.7 540.09,-180.8 540.09,-180.8 540.09,-180.8 410,-180.8 410,-180.8 410,-180.8 410,-190.69 410,-190.69"/>
<polygon fill="black" stroke="black" points="406.5,-190.69 410,-200.69 413.5,-190.69 406.5,-190.69"/>
</g>
<!-- ClienteService -->
<g id="node11" class="node">
<title>ClienteService</title>
<ellipse fill="#fdb462" stroke="black" cx="92" cy="-142.8" rx="67.77" ry="18"/>
<text text-anchor="middle" x="92" y="-138.6" font-family="Times,serif" font-size="14.00">ClienteService</text>
</g>
<!-- ClienteService&#45;&gt;ClienteModule -->
<g id="edge10" class="edge">
<title>ClienteService&#45;&gt;ClienteModule</title>
<path fill="none" stroke="black" d="M92,-161.01C92,-166.35 92,-170.8 92,-170.8 92,-170.8 370,-170.8 370,-170.8 370,-170.8 370,-190.65 370,-190.65"/>
<polygon fill="black" stroke="black" points="366.5,-190.65 370,-200.65 373.5,-190.65 366.5,-190.65"/>
</g>
<!-- ModalAcoesComponent -->
<g id="node12" class="node">
<title>ModalAcoesComponent</title>
<polygon fill="#ffffb3" stroke="black" points="454.37,-84.8 301.63,-84.8 301.63,-48.8 454.37,-48.8 454.37,-84.8"/>
<text text-anchor="middle" x="378" y="-62.6" font-family="Times,serif" font-size="14.00">ModalAcoesComponent</text>
</g>
<!-- ModalAcoesComponent&#45;&gt;ModalAcoesModule -->
<g id="edge11" class="edge">
<title>ModalAcoesComponent&#45;&gt;ModalAcoesModule</title>
<path fill="none" stroke="black" d="M394.44,-84.81C394.44,-84.81 394.44,-114.65 394.44,-114.65"/>
<polygon fill="black" stroke="black" points="390.94,-114.65 394.44,-124.65 397.94,-114.65 390.94,-114.65"/>
</g>
<!-- ModalContatoComponent -->
<g id="node13" class="node">
<title>ModalContatoComponent</title>
<polygon fill="#ffffb3" stroke="black" points="656.21,-84.8 493.79,-84.8 493.79,-48.8 656.21,-48.8 656.21,-84.8"/>
<text text-anchor="middle" x="575" y="-62.6" font-family="Times,serif" font-size="14.00">ModalContatoComponent</text>
</g>
<!-- ModalContatoComponent&#45;&gt;ModalContatoModule -->
<g id="edge12" class="edge">
<title>ModalContatoComponent&#45;&gt;ModalContatoModule</title>
<path fill="none" stroke="black" d="M559.06,-84.81C559.06,-84.81 559.06,-114.65 559.06,-114.65"/>
<polygon fill="black" stroke="black" points="555.56,-114.65 559.06,-124.65 562.56,-114.65 555.56,-114.65"/>
</g>
</g>
</svg>
